BenchTwelve Medium-bold.ufo
<glyph name="quotesingle" format="1">
  <advance width="580"/>
  <unicode hex="0027"/>
  <outline>
    <contour>
      <point x="273" y="743" type="curve" smooth="yes"/>
      <point x="303" y="743" type="line" smooth="yes"/>
      <point x="346" y="743"/>
      <point x="352" y="770"/>
      <point x="358" y="813" type="curve"/>
      <point x="440" y="1383" type="line"/>
      <point x="444" y="1426"/>
      <point x="414" y="1467"/>
      <point x="371" y="1467" type="curve" smooth="yes"/>
      <point x="200" y="1467" type="line" smooth="yes"/>
      <point x="157" y="1467"/>
      <point x="126" y="1426"/>
      <point x="130" y="1383" type="curve"/>
      <point x="218" y="813" type="line"/>
      <point x="225" y="770"/>
      <point x="230" y="743"/>
    </contour>
  </outline>
</glyph>
<glyph name="five" format="1">
  <advance width="2141"/>
  <unicode hex="0035"/>
  <outline>
    <contour>
      <point x="978" y="-40" type="curve" smooth="yes"/>
      <point x="981" y="-40" type="line" smooth="yes"/>
      <point x="1586" y="-40"/>
      <point x="2008" y="56"/>
      <point x="2008" y="447" type="curve" smooth="yes"/>
      <point x="2008" y="728"/>
      <point x="1824" y="934"/>
      <point x="1169" y="934" type="curve" smooth="yes"/>
      <point x="812" y="934"/>
      <point x="659" y="872"/>
      <point x="535" y="803" type="curve"/>
      <point x="522" y="1161" type="line" smooth="yes"/>
      <point x="520" y="1212"/>
      <point x="547" y="1233"/>
      <point x="590" y="1233" type="curve" smooth="yes"/>
      <point x="1804" y="1219" type="line" smooth="yes"/>
      <point x="1830" y="1219"/>
      <point x="1844" y="1232"/>
      <point x="1848" y="1263" type="curve" smooth="yes"/>
      <point x="1861" y="1367" type="line" smooth="yes"/>
      <point x="1862" y="1372"/>
      <point x="1862" y="1376"/>
      <point x="1862" y="1380" type="curve" smooth="yes"/>
      <point x="1862" y="1410"/>
      <point x="1847" y="1438"/>
      <point x="1809" y="1438" type="curve" smooth="yes"/>
      <point x="234" y="1438" type="line" smooth="yes"/>
      <point x="165" y="1438"/>
      <point x="144" y="1393"/>
      <point x="144" y="1318" type="curve"/>
      <point x="208" y="680" type="line" smooth="yes"/>
      <point x="212" y="639"/>
      <point x="210" y="598"/>
      <point x="277" y="598" type="curve" smooth="yes"/>
      <point x="461" y="598" type="line" smooth="yes"/>
      <point x="613" y="598"/>
      <point x="654" y="738"/>
      <point x="1049" y="738" type="curve" smooth="yes"/>
      <point x="1499" y="738"/>
      <point x="1635" y="633"/>
      <point x="1635" y="465" type="curve" smooth="yes"/>
      <point x="1635" y="253"/>
      <point x="1457" y="184"/>
      <point x="985" y="184" type="curve" smooth="yes"/>
      <point x="651" y="184"/>
      <point x="291" y="275"/>
      <point x="252" y="282" type="curve" smooth="yes"/>
      <point x="243" y="284"/>
      <point x="236" y="285"/>
      <point x="229" y="285" type="curve" smooth="yes"/>
      <point x="203" y="285"/>
      <point x="189" y="272"/>
      <point x="185" y="241" type="curve" smooth="yes"/>
      <point x="179" y="197"/>
      <point x="171" y="130"/>
      <point x="171" y="126" type="curve" smooth="yes"/>
      <point x="171" y="96"/>
      <point x="187" y="79"/>
      <point x="224" y="69" type="curve" smooth="yes"/>
      <point x="336" y="36"/>
      <point x="737" y="-39"/>
    </contour>
  </outline>
</glyph>
<glyph name="semicolon" format="1">
  <advance width="646"/>
  <unicode hex="003B"/>
  <outline>
    <contour>
      <point x="217" y="-314" type="curve" smooth="yes"/>
      <point x="355" y="-291"/>
      <point x="500" y="-163"/>
      <point x="500" y="74" type="curve" smooth="yes"/>
      <point x="500" y="250" type="line" smooth="yes"/>
      <point x="500" y="293"/>
      <point x="466" y="327"/>
      <point x="423" y="327" type="curve" smooth="yes"/>
      <point x="208" y="327" type="line" smooth="yes"/>
      <point x="165" y="327"/>
      <point x="148" y="302"/>
      <point x="148" y="259" type="curve" smooth="yes"/>
      <point x="148" y="56" type="line" smooth="yes"/>
      <point x="148" y="18"/>
      <point x="170" y="0"/>
      <point x="208" y="0" type="curve" smooth="yes"/>
      <point x="290" y="0" type="line" smooth="yes"/>
      <point x="305" y="0"/>
      <point x="307" y="-11"/>
      <point x="307" y="-27" type="curve" smooth="yes"/>
      <point x="307" y="-51"/>
      <point x="281" y="-128"/>
      <point x="212" y="-171" type="curve" smooth="yes"/>
      <point x="169" y="-198"/>
      <point x="148" y="-192"/>
      <point x="148" y="-246" type="curve" smooth="yes"/>
      <point x="148" y="-269" type="line" smooth="yes"/>
      <point x="148" y="-305"/>
      <point x="182" y="-320"/>
    </contour>
    <contour>
      <point x="241" y="725" type="curve" smooth="yes"/>
      <point x="403" y="725" type="line" smooth="yes"/>
      <point x="446" y="725"/>
      <point x="480" y="759"/>
      <point x="480" y="802" type="curve" smooth="yes"/>
      <point x="480" y="961" type="line" smooth="yes"/>
      <point x="480" y="1004"/>
      <point x="446" y="1038"/>
      <point x="403" y="1038" type="curve" smooth="yes"/>
      <point x="241" y="1038" type="line" smooth="yes"/>
      <point x="198" y="1038"/>
      <point x="164" y="1004"/>
      <point x="164" y="961" type="curve" smooth="yes"/>
      <point x="164" y="802" type="line" smooth="yes"/>
      <point x="164" y="759"/>
      <point x="198" y="725"/>
    </contour>
  </outline>
</glyph>
<glyph name="question" format="1">
  <advance width="1789"/>
  <unicode hex="003F"/>
  <outline>
    <contour>
      <point x="701" y="450" type="curve"/>
      <point x="735" y="461"/>
      <point x="767" y="532"/>
      <point x="865" y="542" type="curve" smooth="yes"/>
      <point x="1037" y="564"/>
      <point x="1302" y="634"/>
      <point x="1376" y="869" type="curve" smooth="yes"/>
      <point x="1463" y="1089"/>
      <point x="1457" y="1159"/>
      <point x="1174" y="1297" type="curve" smooth="yes"/>
      <point x="1030" y="1438"/>
      <point x="727" y="1426"/>
      <point x="447" y="1401" type="curve" smooth="yes"/>
      <point x="308" y="1393"/>
      <point x="168" y="1344"/>
      <point x="125" y="1307" type="curve"/>
      <point x="108" y="1301"/>
      <point x="128" y="1216"/>
      <point x="134" y="1203" type="curve"/>
      <point x="143" y="1179"/>
      <point x="172" y="1147"/>
      <point x="196" y="1156" type="curve" smooth="yes"/>
      <point x="312" y="1178"/>
      <point x="432" y="1200"/>
      <point x="597" y="1206" type="curve" smooth="yes"/>
      <point x="844" y="1231"/>
      <point x="990" y="1202"/>
      <point x="1119" y="1140" type="curve" smooth="yes"/>
      <point x="1304" y="1059"/>
      <point x="1329" y="984"/>
      <point x="1204" y="908" type="curve" smooth="yes"/>
      <point x="1081" y="838"/>
      <point x="998" y="779"/>
      <point x="794" y="689" type="curve" smooth="yes"/>
      <point x="695" y="678"/>
      <point x="632" y="640"/>
      <point x="600" y="540" type="curve"/>
      <point x="607" y="531"/>
      <point x="620" y="498"/>
      <point x="639" y="480" type="curve"/>
      <point x="659" y="456"/>
      <point x="686" y="451"/>
    </contour>
    <contour>
      <point x="625" y="0" type="curve" smooth="yes"/>
      <point x="811" y="0" type="line" smooth="yes"/>
      <point x="854" y="0"/>
      <point x="874" y="20"/>
      <point x="874" y="63" type="curve" smooth="yes"/>
      <point x="874" y="211" type="line" smooth="yes"/>
      <point x="874" y="254"/>
      <point x="854" y="274"/>
      <point x="811" y="274" type="curve" smooth="yes"/>
      <point x="625" y="274" type="line" smooth="yes"/>
      <point x="582" y="274"/>
      <point x="563" y="254"/>
      <point x="563" y="211" type="curve" smooth="yes"/>
      <point x="563" y="63" type="line" smooth="yes"/>
      <point x="563" y="20"/>
      <point x="582" y="0"/>
    </contour>
  </outline>
</glyph>
<glyph name="B" format="1">
  <advance width="2312"/>
  <unicode hex="0042"/>
  <outline>
    <contour>
      <point x="237" y="0" type="curve" smooth="yes"/>
      <point x="1390" y="0" type="line" smooth="yes"/>
      <point x="1889" y="0"/>
      <point x="2176" y="96"/>
      <point x="2176" y="424" type="curve" smooth="yes"/>
      <point x="2176" y="590"/>
      <point x="2066" y="694"/>
      <point x="1912" y="757" type="curve" smooth="yes"/>
      <point x="1897" y="763"/>
      <point x="1896" y="780"/>
      <point x="1909" y="788" type="curve" smooth="yes"/>
      <point x="2011" y="848"/>
      <point x="2078" y="929"/>
      <point x="2078" y="1040" type="curve" smooth="yes"/>
      <point x="2078" y="1339"/>
      <point x="1863" y="1438"/>
      <point x="1435" y="1438" type="curve" smooth="yes"/>
      <point x="237" y="1438" type="line" smooth="yes"/>
      <point x="194" y="1438"/>
      <point x="160" y="1402"/>
      <point x="160" y="1359" type="curve" smooth="yes"/>
      <point x="160" y="77" type="line" smooth="yes"/>
      <point x="160" y="34"/>
      <point x="194" y="0"/>
    </contour>
    <contour>
      <point x="567" y="222" type="line"/>
      <point x="547" y="222"/>
      <point x="530" y="227"/>
      <point x="530" y="257" type="curve" smooth="yes"/>
      <point x="530" y="620" type="line" smooth="yes"/>
      <point x="530" y="649"/>
      <point x="547" y="658"/>
      <point x="567" y="658" type="curve" smooth="yes"/>
      <point x="1441" y="658" type="line" smooth="yes"/>
      <point x="1652" y="658"/>
      <point x="1796" y="625"/>
      <point x="1796" y="445" type="curve" smooth="yes"/>
      <point x="1796" y="243"/>
      <point x="1574" y="222"/>
      <point x="1387" y="222" type="curve" smooth="yes"/>
    </contour>
    <contour>
      <point x="567" y="844" type="line"/>
      <point x="547" y="844"/>
      <point x="530" y="869"/>
      <point x="530" y="899" type="curve" smooth="yes"/>
      <point x="530" y="1192" type="line" smooth="yes"/>
      <point x="530" y="1221"/>
      <point x="547" y="1232"/>
      <point x="567" y="1232" type="curve" smooth="yes"/>
      <point x="1378" y="1232" type="line" smooth="yes"/>
      <point x="1544" y="1232"/>
      <point x="1725" y="1229"/>
      <point x="1725" y="1027" type="curve" smooth="yes"/>
      <point x="1725" y="878"/>
      <point x="1620" y="850"/>
      <point x="1458" y="844" type="curve"/>
    </contour>
  </outline>
</glyph>
<glyph name="G" format="1">
  <advance width="2352"/>
  <unicode hex="0047"/>
  <outline>
    <contour>
      <point x="1166" y="-41" type="curve" smooth="yes"/>
      <point x="1418" y="-41"/>
      <point x="1781" y="16"/>
      <point x="1969" y="269" type="curve" smooth="yes"/>
      <point x="1975" y="275"/>
      <point x="1979" y="279"/>
      <point x="1983" y="279" type="curve" smooth="yes"/>
      <point x="1989" y="279"/>
      <point x="1992" y="266"/>
      <point x="1994" y="259" type="curve" smooth="yes"/>
      <point x="2001" y="222"/>
      <point x="2032" y="91"/>
      <point x="2039" y="70" type="curve" smooth="yes"/>
      <point x="2055" y="22"/>
      <point x="2085" y="0"/>
      <point x="2131" y="0" type="curve" smooth="yes"/>
      <point x="2174" y="0"/>
      <point x="2201" y="34"/>
      <point x="2201" y="77" type="curve" smooth="yes"/>
      <point x="2201" y="689" type="line" smooth="yes"/>
      <point x="2201" y="732"/>
      <point x="2167" y="766"/>
      <point x="2124" y="766" type="curve" smooth="yes"/>
      <point x="1360" y="766" type="line" smooth="yes"/>
      <point x="1317" y="766"/>
      <point x="1283" y="738"/>
      <point x="1283" y="695" type="curve" smooth="yes"/>
      <point x="1283" y="659" type="line" smooth="yes"/>
      <point x="1283" y="616"/>
      <point x="1317" y="588"/>
      <point x="1360" y="588" type="curve" smooth="yes"/>
      <point x="1840" y="588" type="line" smooth="yes"/>
      <point x="1855" y="588"/>
      <point x="1862" y="566"/>
      <point x="1862" y="550" type="curve" smooth="yes"/>
      <point x="1862" y="376"/>
      <point x="1576" y="195"/>
      <point x="1189" y="195" type="curve" smooth="yes"/>
      <point x="842" y="195"/>
      <point x="524" y="301"/>
      <point x="524" y="720" type="curve" smooth="yes"/>
      <point x="524" y="1093"/>
      <point x="835" y="1240"/>
      <point x="1194" y="1242" type="curve"/>
      <point x="1466" y="1242"/>
      <point x="1685" y="1162"/>
      <point x="1792" y="1010" type="curve"/>
      <point x="1805" y="991"/>
      <point x="1834" y="952"/>
      <point x="1889" y="952" type="curve" smooth="yes"/>
      <point x="1895" y="952"/>
      <point x="2005" y="970"/>
      <point x="2146" y="981" type="curve" smooth="yes"/>
      <point x="2156" y="983"/>
      <point x="2163" y="990"/>
      <point x="2163" y="998" type="curve" smooth="yes"/>
      <point x="2163" y="1004"/>
      <point x="2162" y="1011"/>
      <point x="2160" y="1017" type="curve" smooth="yes"/>
      <point x="2025" y="1364"/>
      <point x="1582" y="1475"/>
      <point x="1194" y="1475" type="curve" smooth="yes"/>
      <point x="696" y="1475"/>
      <point x="134" y="1304"/>
      <point x="134" y="720" type="curve" smooth="yes"/>
      <point x="134" y="119"/>
      <point x="676" y="-41"/>
    </contour>
    <contour>
      <point x="1176" y="1438" type="move" name="top"/>
    </contour>
    <contour>
      <point x="1176" y="0" type="move" name="bottom"/>
    </contour>
  </outline>
</glyph>
<glyph name="N" format="1">
  <advance width="2208"/>
  <unicode hex="004E"/>
  <outline>
    <contour>
      <point x="230" y="0" type="curve" smooth="yes"/>
      <point x="438" y="0" type="line" smooth="yes"/>
      <point x="481" y="0"/>
      <point x="507" y="27"/>
      <point x="507" y="70" type="curve" smooth="yes"/>
      <point x="507" y="1019" type="line" smooth="yes"/>
      <point x="507" y="1023"/>
      <point x="522" y="1032"/>
      <point x="525" y="1029" type="curve" smooth="yes"/>
      <point x="1672" y="23" type="line"/>
      <point x="1689" y="5"/>
      <point x="1717" y="-5"/>
      <point x="1746" y="-5" type="curve" smooth="yes"/>
      <point x="1978" y="-5" type="line" smooth="yes"/>
      <point x="2021" y="-5"/>
      <point x="2048" y="22"/>
      <point x="2048" y="65" type="curve" smooth="yes"/>
      <point x="2048" y="1367" type="line" smooth="yes"/>
      <point x="2048" y="1410"/>
      <point x="2021" y="1437"/>
      <point x="1978" y="1437" type="curve" smooth="yes"/>
      <point x="1773" y="1437" type="line" smooth="yes"/>
      <point x="1730" y="1437"/>
      <point x="1703" y="1410"/>
      <point x="1703" y="1367" type="curve" smooth="yes"/>
      <point x="1703" y="477" type="line" smooth="yes"/>
      <point x="1703" y="472"/>
      <point x="1689" y="461"/>
      <point x="1687" y="464" type="curve" smooth="yes"/>
      <point x="592" y="1415" type="line"/>
      <point x="575" y="1433"/>
      <point x="548" y="1443"/>
      <point x="518" y="1443" type="curve" smooth="yes"/>
      <point x="230" y="1443" type="line" smooth="yes"/>
      <point x="187" y="1443"/>
      <point x="160" y="1416"/>
      <point x="160" y="1373" type="curve" smooth="yes"/>
      <point x="160" y="70" type="line" smooth="yes"/>
      <point x="160" y="27"/>
      <point x="187" y="0"/>
    </contour>
    <contour>
      <point x="1104" y="1438" type="move" name="top"/>
    </contour>
    <contour>
      <point x="1104" y="0" type="move" name="bottom"/>
    </contour>
  </outline>
</glyph>
<glyph name="O" format="1">
  <advance width="2343"/>
  <unicode hex="004F"/>
  <outline>
    <contour>
      <point x="1172" y="196" type="curve" smooth="yes"/>
      <point x="826" y="196"/>
      <point x="536" y="295"/>
      <point x="536" y="723" type="curve" smooth="yes"/>
      <point x="536" y="1101"/>
      <point x="817" y="1240"/>
      <point x="1172" y="1240" type="curve" smooth="yes"/>
      <point x="1528" y="1240"/>
      <point x="1807" y="1101"/>
      <point x="1807" y="723" type="curve" smooth="yes"/>
      <point x="1807" y="295"/>
      <point x="1519" y="196"/>
    </contour>
    <contour>
      <point x="1172" y="-41" type="curve" smooth="yes"/>
      <point x="1651" y="-41"/>
      <point x="2209" y="95"/>
      <point x="2209" y="723" type="curve" smooth="yes"/>
      <point x="2209" y="1304"/>
      <point x="1651" y="1475"/>
      <point x="1172" y="1475" type="curve" smooth="yes"/>
      <point x="693" y="1475"/>
      <point x="134" y="1304"/>
      <point x="134" y="723" type="curve" smooth="yes"/>
      <point x="134" y="95"/>
      <point x="693" y="-41"/>
    </contour>
    <contour>
      <point x="1172" y="1438" type="move" name="top"/>
    </contour>
  </outline>
</glyph>
<glyph name="W" format="1">
  <advance width="3304"/>
  <unicode hex="0057"/>
  <outline>
    <contour>
      <point x="840" y="0" type="curve" smooth="yes"/>
      <point x="1078" y="0" type="line" smooth="yes"/>
      <point x="1119" y="3"/>
      <point x="1154" y="28"/>
      <point x="1173" y="68" type="curve" smooth="yes"/>
      <point x="1651" y="1065" type="line"/>
      <point x="2156" y="68" type="line" smooth="yes"/>
      <point x="2177" y="26"/>
      <point x="2215" y="2"/>
      <point x="2257" y="0" type="curve" smooth="yes"/>
      <point x="2503" y="0" type="line" smooth="yes"/>
      <point x="2545" y="2"/>
      <point x="2581" y="27"/>
      <point x="2601" y="68" type="curve" smooth="yes"/>
      <point x="3196" y="1370" type="line" smooth="yes"/>
      <point x="3216" y="1410"/>
      <point x="3201" y="1438"/>
      <point x="3160" y="1438" type="curve" smooth="yes"/>
      <point x="2939" y="1438" type="line" smooth="yes"/>
      <point x="2894" y="1438"/>
      <point x="2855" y="1413"/>
      <point x="2835" y="1370" type="curve" smooth="yes"/>
      <point x="2391" y="356" type="line"/>
      <point x="1876" y="1370" type="line" smooth="yes"/>
      <point x="1854" y="1412"/>
      <point x="1815" y="1437"/>
      <point x="1772" y="1438" type="curve"/>
      <point x="1553" y="1438" type="line" smooth="yes"/>
      <point x="1513" y="1438"/>
      <point x="1473" y="1413"/>
      <point x="1453" y="1370" type="curve" smooth="yes"/>
      <point x="972" y="359" type="line"/>
      <point x="500" y="1370" type="line" smooth="yes"/>
      <point x="478" y="1413"/>
      <point x="438" y="1438"/>
      <point x="394" y="1438" type="curve" smooth="yes"/>
      <point x="137" y="1438" type="line" smooth="yes"/>
      <point x="96" y="1438"/>
      <point x="82" y="1410"/>
      <point x="104" y="1370" type="curve" smooth="yes"/>
      <point x="739" y="68" type="line" smooth="yes"/>
      <point x="761" y="27"/>
      <point x="799" y="2"/>
    </contour>
    <contour>
      <point x="1652" y="1438" type="move" name="top"/>
    </contour>
  </outline>
</glyph>
<glyph name="Y" format="1">
  <advance width="1856"/>
  <unicode hex="0059"/>
  <outline>
    <contour>
      <point x="811" y="0" type="curve" smooth="yes"/>
      <point x="1047" y="0" type="line" smooth="yes"/>
      <point x="1090" y="0"/>
      <point x="1117" y="27"/>
      <point x="1117" y="70" type="curve" smooth="yes"/>
      <point x="1117" y="632" type="line"/>
      <point x="1756" y="1373" type="line" smooth="yes"/>
      <point x="1772" y="1387"/>
      <point x="1778" y="1402"/>
      <point x="1778" y="1413" type="curve" smooth="yes"/>
      <point x="1778" y="1427"/>
      <point x="1766" y="1438"/>
      <point x="1743" y="1438" type="curve" smooth="yes"/>
      <point x="1494" y="1438" type="line" smooth="yes"/>
      <point x="1450" y="1438"/>
      <point x="1404" y="1414"/>
      <point x="1368" y="1372" type="curve" smooth="yes"/>
      <point x="947" y="884" type="line"/>
      <point x="517" y="1373" type="line" smooth="yes"/>
      <point x="479" y="1414"/>
      <point x="432" y="1438"/>
      <point x="388" y="1438" type="curve" smooth="yes"/>
      <point x="108" y="1438" type="line" smooth="yes"/>
      <point x="85" y="1438"/>
      <point x="73" y="1428"/>
      <point x="73" y="1414" type="curve" smooth="yes"/>
      <point x="73" y="1404"/>
      <point x="81" y="1389"/>
      <point x="99" y="1373" type="curve" smooth="yes"/>
      <point x="742" y="628" type="line"/>
      <point x="742" y="70" type="line" smooth="yes"/>
      <point x="742" y="27"/>
      <point x="768" y="0"/>
    </contour>
    <contour>
      <point x="928" y="1438" type="move" name="top"/>
    </contour>
  </outline>
</glyph>
<glyph name="backslash" format="1">
  <advance width="1189"/>
  <unicode hex="005C"/>
  <outline>
    <contour>
      <point x="808" y="-206" type="curve" smooth="yes"/>
      <point x="1072" y="-205" type="line" smooth="yes"/>
      <point x="1090" y="-205"/>
      <point x="1102" y="-187"/>
      <point x="1096" y="-170" type="curve" smooth="yes"/>
      <point x="409" y="1612" type="line"/>
      <point x="402" y="1633"/>
      <point x="381" y="1647"/>
      <point x="359" y="1647" type="curve" smooth="yes"/>
      <point x="95" y="1647" type="line" smooth="yes"/>
      <point x="77" y="1647"/>
      <point x="65" y="1629"/>
      <point x="71" y="1612" type="curve" smooth="yes"/>
      <point x="758" y="-171" type="line" smooth="yes"/>
      <point x="766" y="-192"/>
      <point x="786" y="-206"/>
    </contour>
  </outline>
</glyph>
<glyph name="l" format="1">
  <advance width="656"/>
  <unicode hex="006C"/>
  <outline>
    <contour>
      <point x="231" y="0" type="curve" smooth="yes"/>
      <point x="424" y="0" type="line" smooth="yes"/>
      <point x="467" y="0"/>
      <point x="494" y="27"/>
      <point x="494" y="70" type="curve" smooth="yes"/>
      <point x="494" y="1379" type="line" smooth="yes"/>
      <point x="494" y="1422"/>
      <point x="467" y="1449"/>
      <point x="424" y="1449" type="curve" smooth="yes"/>
      <point x="231" y="1449" type="line" smooth="yes"/>
      <point x="188" y="1449"/>
      <point x="162" y="1422"/>
      <point x="162" y="1379" type="curve" smooth="yes"/>
      <point x="162" y="70" type="line" smooth="yes"/>
      <point x="162" y="27"/>
      <point x="188" y="0"/>
    </contour>
    <contour>
      <point x="328" y="1006" type="move" name="top"/>
    </contour>
    <contour>
      <point x="634" y="1006" type="move" name="topright"/>
    </contour>
    <contour>
      <point x="328" y="0" type="move" name="bottom"/>
    </contour>
  </outline>
</glyph>
<glyph name="q" format="1">
  <advance width="1792"/>
  <unicode hex="0071"/>
  <outline>
    <contour>
      <point x="1378" y="-389" type="curve" smooth="yes"/>
      <point x="1570" y="-389" type="line" smooth="yes"/>
      <point x="1613" y="-389"/>
      <point x="1640" y="-362"/>
      <point x="1640" y="-319" type="curve" smooth="yes"/>
      <point x="1640" y="937" type="line" smooth="yes"/>
      <point x="1640" y="980"/>
      <point x="1623" y="1007"/>
      <point x="1580" y="1007" type="curve" smooth="yes"/>
      <point x="1540" y="1007" type="line" smooth="yes"/>
      <point x="1506" y="1007"/>
      <point x="1475" y="986"/>
      <point x="1454" y="929" type="curve" smooth="yes"/>
      <point x="1445" y="902"/>
      <point x="1408" y="833"/>
      <point x="1398" y="809" type="curve" smooth="yes"/>
      <point x="1395" y="803"/>
      <point x="1391" y="800"/>
      <point x="1388" y="800" type="curve" smooth="yes"/>
      <point x="1383" y="800"/>
      <point x="1379" y="803"/>
      <point x="1376" y="807" type="curve" smooth="yes"/>
      <point x="1256" y="969"/>
      <point x="1030" y="1053"/>
      <point x="818" y="1053" type="curve" smooth="yes"/>
      <point x="500" y="1053"/>
      <point x="131" y="897"/>
      <point x="131" y="509" type="curve" smooth="yes"/>
      <point x="131" y="106"/>
      <point x="489" y="-42"/>
      <point x="819" y="-42" type="curve" smooth="yes"/>
      <point x="1010" y="-42"/>
      <point x="1180" y="14"/>
      <point x="1290" y="123" type="curve" smooth="yes"/>
      <point x="1292" y="124"/>
      <point x="1296" y="128"/>
      <point x="1299" y="128" type="curve" smooth="yes"/>
      <point x="1304" y="128"/>
      <point x="1308" y="124"/>
      <point x="1308" y="116" type="curve" smooth="yes"/>
      <point x="1308" y="-319" type="line" smooth="yes"/>
      <point x="1308" y="-362"/>
      <point x="1335" y="-389"/>
    </contour>
    <contour>
      <point x="887" y="147" type="curve" smooth="yes"/>
      <point x="663" y="147"/>
      <point x="471" y="265"/>
      <point x="471" y="504" type="curve" smooth="yes"/>
      <point x="471" y="726"/>
      <point x="651" y="858"/>
      <point x="887" y="858" type="curve" smooth="yes"/>
      <point x="1128" y="858"/>
      <point x="1308" y="724"/>
      <point x="1308" y="504" type="curve" smooth="yes"/>
      <point x="1308" y="267"/>
      <point x="1117" y="147"/>
    </contour>
  </outline>
</glyph>
<glyph name="bar" format="1">
  <advance width="559"/>
  <unicode hex="007C"/>
  <outline>
    <contour>
      <point x="238" y="-150" type="curve" smooth="yes"/>
      <point x="321" y="-150" type="line" smooth="yes"/>
      <point x="364" y="-150"/>
      <point x="398" y="-130"/>
      <point x="398" y="-87" type="curve" smooth="yes"/>
      <point x="398" y="1492" type="line" smooth="yes"/>
      <point x="398" y="1535"/>
      <point x="364" y="1555"/>
      <point x="321" y="1555" type="curve" smooth="yes"/>
      <point x="238" y="1555" type="line" smooth="yes"/>
      <point x="195" y="1555"/>
      <point x="161" y="1535"/>
      <point x="161" y="1492" type="curve" smooth="yes"/>
      <point x="161" y="-87" type="line" smooth="yes"/>
      <point x="161" y="-130"/>
      <point x="195" y="-150"/>
    </contour>
  </outline>
</glyph>
<glyph name="cent" format="1">
  <advance width="1617"/>
  <unicode hex="00A2"/>
  <outline>
    <contour>
      <point x="891" y="-204" type="curve" smooth="yes"/>
      <point x="926" y="-204" type="line" smooth="yes"/>
      <point x="969" y="-204"/>
      <point x="993" y="-190"/>
      <point x="993" y="-147" type="curve" smooth="yes"/>
      <point x="993" y="-26" type="line"/>
      <point x="1134" y="-17"/>
      <point x="1291" y="19"/>
      <point x="1405" y="67" type="curve" smooth="yes"/>
      <point x="1448" y="85"/>
      <point x="1458" y="115"/>
      <point x="1448" y="145" type="curve" smooth="yes"/>
      <point x="1438" y="175"/>
      <point x="1430" y="203"/>
      <point x="1424" y="220" type="curve" smooth="yes"/>
      <point x="1415" y="245"/>
      <point x="1384" y="257"/>
      <point x="1343" y="241" type="curve" smooth="yes"/>
      <point x="1272" y="213"/>
      <point x="1139" y="166"/>
      <point x="993" y="158" type="curve"/>
      <point x="993" y="849" type="line"/>
      <point x="1151" y="840"/>
      <point x="1275" y="797"/>
      <point x="1355" y="760" type="curve" smooth="yes"/>
      <point x="1384" y="748"/>
      <point x="1418" y="738"/>
      <point x="1436" y="779" type="curve"/>
      <point x="1439" y="790"/>
      <point x="1462" y="844"/>
      <point x="1467" y="855" type="curve" smooth="yes"/>
      <point x="1477" y="881"/>
      <point x="1468" y="909"/>
      <point x="1435" y="927" type="curve" smooth="yes"/>
      <point x="1314" y="991"/>
      <point x="1147" y="1027"/>
      <point x="993" y="1036" type="curve"/>
      <point x="993" y="1214" type="line" smooth="yes"/>
      <point x="993" y="1257"/>
      <point x="969" y="1271"/>
      <point x="926" y="1271" type="curve" smooth="yes"/>
      <point x="891" y="1271" type="line" smooth="yes"/>
      <point x="848" y="1271"/>
      <point x="824" y="1258"/>
      <point x="824" y="1215" type="curve" smooth="yes"/>
      <point x="824" y="1035" type="line"/>
      <point x="487" y="1014"/>
      <point x="129" y="868"/>
      <point x="129" y="505" type="curve" smooth="yes"/>
      <point x="129" y="144"/>
      <point x="486" y="-2"/>
      <point x="824" y="-25" type="curve"/>
      <point x="824" y="-146" type="line" smooth="yes"/>
      <point x="824" y="-189"/>
      <point x="848" y="-204"/>
    </contour>
    <contour>
      <point x="824" y="167" type="line"/>
      <point x="623" y="199"/>
      <point x="463" y="310"/>
      <point x="464" y="505" type="curve" smooth="yes"/>
      <point x="463" y="714"/>
      <point x="636" y="815"/>
      <point x="824" y="842" type="curve"/>
    </contour>
  </outline>
</glyph>
<glyph name="currency" format="1">
  <advance width="1326"/>
  <unicode hex="00A4"/>
  <outline>
    <contour>
      <point x="662" y="426" type="curve" smooth="yes"/>
      <point x="796" y="426"/>
      <point x="885" y="459"/>
      <point x="971" y="515" type="curve"/>
      <point x="1002" y="484" type="line" smooth="yes"/>
      <point x="1022" y="463"/>
      <point x="1040" y="445"/>
      <point x="1059" y="445" type="curve" smooth="yes"/>
      <point x="1067" y="445"/>
      <point x="1075" y="449"/>
      <point x="1084" y="457" type="curve" smooth="yes"/>
      <point x="1116" y="490" type="line" smooth="yes"/>
      <point x="1126" y="500"/>
      <point x="1130" y="509"/>
      <point x="1130" y="518" type="curve" smooth="yes"/>
      <point x="1130" y="537"/>
      <point x="1113" y="554"/>
      <point x="1092" y="575" type="curve" smooth="yes"/>
      <point x="1068" y="599" type="line"/>
      <point x="1145" y="689"/>
      <point x="1185" y="805"/>
      <point x="1185" y="931" type="curve" smooth="yes"/>
      <point x="1185" y="1059"/>
      <point x="1144" y="1177"/>
      <point x="1065" y="1268" type="curve"/>
      <point x="1092" y="1295" type="line" smooth="yes"/>
      <point x="1113" y="1316"/>
      <point x="1131" y="1334"/>
      <point x="1131" y="1352" type="curve" smooth="yes"/>
      <point x="1131" y="1360"/>
      <point x="1127" y="1368"/>
      <point x="1119" y="1377" type="curve" smooth="yes"/>
      <point x="1086" y="1409" type="line" smooth="yes"/>
      <point x="1076" y="1419"/>
      <point x="1067" y="1423"/>
      <point x="1058" y="1423" type="curve" smooth="yes"/>
      <point x="1039" y="1423"/>
      <point x="1022" y="1406"/>
      <point x="1001" y="1385" type="curve" smooth="yes"/>
      <point x="968" y="1352" type="line"/>
      <point x="883" y="1407"/>
      <point x="794" y="1440"/>
      <point x="662" y="1440" type="curve" smooth="yes"/>
      <point x="530" y="1440"/>
      <point x="443" y="1407"/>
      <point x="358" y="1352" type="curve"/>
      <point x="324" y="1386" type="line" smooth="yes"/>
      <point x="304" y="1406"/>
      <point x="287" y="1423"/>
      <point x="268" y="1423" type="curve" smooth="yes"/>
      <point x="259" y="1423"/>
      <point x="249" y="1419"/>
      <point x="239" y="1409" type="curve" smooth="yes"/>
      <point x="207" y="1377" type="line" smooth="yes"/>
      <point x="198" y="1369"/>
      <point x="194" y="1360"/>
      <point x="194" y="1352" type="curve" smooth="yes"/>
      <point x="194" y="1334"/>
      <point x="212" y="1316"/>
      <point x="233" y="1295" type="curve" smooth="yes"/>
      <point x="260" y="1268" type="line"/>
      <point x="181" y="1177"/>
      <point x="140" y="1059"/>
      <point x="140" y="931" type="curve" smooth="yes"/>
      <point x="140" y="805"/>
      <point x="180" y="688"/>
      <point x="258" y="599" type="curve"/>
      <point x="233" y="574" type="line" smooth="yes"/>
      <point x="213" y="554"/>
      <point x="196" y="537"/>
      <point x="196" y="518" type="curve" smooth="yes"/>
      <point x="196" y="509"/>
      <point x="200" y="499"/>
      <point x="210" y="489" type="curve" smooth="yes"/>
      <point x="242" y="457" type="line" smooth="yes"/>
      <point x="250" y="448"/>
      <point x="259" y="445"/>
      <point x="267" y="445" type="curve" smooth="yes"/>
      <point x="285" y="445"/>
      <point x="303" y="463"/>
      <point x="324" y="484" type="curve" smooth="yes"/>
      <point x="355" y="515" type="line"/>
      <point x="440" y="459"/>
      <point x="528" y="426"/>
    </contour>
    <contour>
      <point x="662" y="548" type="curve" smooth="yes"/>
      <point x="383" y="548"/>
      <point x="278" y="753"/>
      <point x="278" y="931" type="curve" smooth="yes"/>
      <point x="278" y="1118"/>
      <point x="383" y="1318"/>
      <point x="662" y="1318" type="curve" smooth="yes"/>
      <point x="942" y="1318"/>
      <point x="1047" y="1118"/>
      <point x="1047" y="931" type="curve" smooth="yes"/>
      <point x="1047" y="753"/>
      <point x="942" y="548"/>
    </contour>
  </outline>
</glyph>
<glyph name="periodcentered" format="1">
  <advance width="571"/>
  <unicode hex="00B7"/>
  <outline>
    <contour>
      <point x="205" y="0" type="curve" smooth="yes"/>
      <point x="366" y="0" type="line" smooth="yes"/>
      <point x="409" y="0"/>
      <point x="443" y="34"/>
      <point x="443" y="77" type="curve" smooth="yes"/>
      <point x="443" y="237" type="line" smooth="yes"/>
      <point x="443" y="280"/>
      <point x="409" y="314"/>
      <point x="366" y="314" type="curve" smooth="yes"/>
      <point x="205" y="314" type="line" smooth="yes"/>
      <point x="162" y="314"/>
      <point x="128" y="280"/>
      <point x="128" y="237" type="curve" smooth="yes"/>
      <point x="128" y="77" type="line" smooth="yes"/>
      <point x="128" y="34"/>
      <point x="162" y="0"/>
    </contour>
  </outline>
</glyph>
<glyph name="onehalf" format="1">
  <advance width="3415"/>
  <unicode hex="00BD"/>
  <outline>
    <contour>
      <point x="2485" y="0" type="curve" smooth="yes"/>
      <point x="2501" y="0"/>
      <point x="2997" y="6"/>
      <point x="2997" y="25" type="curve" smooth="yes"/>
      <point x="3009" y="25"/>
      <point x="3013" y="80"/>
      <point x="3013" y="92" type="curve" smooth="yes"/>
      <point x="3013" y="112"/>
      <point x="3005" y="134"/>
      <point x="2993" y="134" type="curve" smooth="yes"/>
      <point x="2993" y="147"/>
      <point x="2547" y="152"/>
      <point x="2539" y="152" type="curve" smooth="yes"/>
      <point x="2526" y="152"/>
      <point x="2110" y="160"/>
      <point x="2108" y="168" type="curve" smooth="yes"/>
      <point x="2094" y="176"/>
      <point x="2085" y="191"/>
      <point x="2090" y="203" type="curve" smooth="yes"/>
      <point x="2209" y="359"/>
      <point x="2596" y="219"/>
      <point x="2584" y="499" type="curve" smooth="yes"/>
      <point x="2630" y="824"/>
      <point x="2882" y="704"/>
      <point x="2667" y="907" type="curve" smooth="yes"/>
      <point x="2570" y="1011"/>
      <point x="2307" y="1012"/>
      <point x="2082" y="989" type="curve" smooth="yes"/>
      <point x="1996" y="984"/>
      <point x="1876" y="951"/>
      <point x="1842" y="924" type="curve" smooth="yes"/>
      <point x="1834" y="919"/>
      <point x="1838" y="882"/>
      <point x="1851" y="843" type="curve" smooth="yes"/>
      <point x="1853" y="833"/>
      <point x="1860" y="829"/>
      <point x="1884" y="809" type="curve"/>
      <point x="1891" y="804"/>
      <point x="1902" y="803"/>
      <point x="1919" y="805" type="curve" smooth="yes"/>
      <point x="1933" y="809"/>
      <point x="2080" y="854"/>
      <point x="2206" y="856" type="curve" smooth="yes"/>
      <point x="2372" y="858"/>
      <point x="2497" y="855"/>
      <point x="2590" y="799" type="curve" smooth="yes"/>
      <point x="2763" y="650"/>
      <point x="2316" y="801"/>
      <point x="2265" y="349" type="curve" smooth="yes"/>
      <point x="2265" y="209"/>
      <point x="1844" y="348"/>
      <point x="1787" y="74" type="curve" smooth="yes"/>
      <point x="1786" y="47"/>
      <point x="1799" y="30"/>
      <point x="1824" y="27" type="curve" smooth="yes"/>
      <point x="1824" y="11"/>
      <point x="2466" y="0"/>
    </contour>
    <contour>
      <point x="468" y="434" type="curve" smooth="yes"/>
      <point x="638" y="434" type="line" smooth="yes"/>
      <point x="668" y="434"/>
      <point x="686" y="453"/>
      <point x="686" y="483" type="curve" smooth="yes"/>
      <point x="686" y="1390" type="line" smooth="yes"/>
      <point x="686" y="1420"/>
      <point x="668" y="1439"/>
      <point x="638" y="1439" type="curve"/>
      <point x="216" y="1397" type="line"/>
      <point x="186" y="1397"/>
      <point x="167" y="1378"/>
      <point x="167" y="1348" type="curve" smooth="yes"/>
      <point x="167" y="1283" type="line" smooth="yes"/>
      <point x="167" y="1253"/>
      <point x="186" y="1234"/>
      <point x="216" y="1234" type="curve"/>
      <point x="393" y="1253" type="line"/>
      <point x="407" y="1253"/>
      <point x="419" y="1241"/>
      <point x="419" y="1227" type="curve" smooth="yes"/>
      <point x="419" y="483" type="line" smooth="yes"/>
      <point x="419" y="453"/>
      <point x="438" y="434"/>
    </contour>
    <contour>
      <point x="852" y="-204" type="curve"/>
      <point x="858" y="-204"/>
      <point x="958" y="-200"/>
      <point x="961" y="-194" type="curve" smooth="yes"/>
      <point x="982" y="-194"/>
      <point x="1484" y="904"/>
      <point x="1478" y="912" type="curve" smooth="yes"/>
      <point x="1479" y="914"/>
      <point x="1852" y="1631"/>
      <point x="1828" y="1632" type="curve" smooth="yes"/>
      <point x="1808" y="1640"/>
      <point x="1778" y="1649"/>
      <point x="1768" y="1649" type="curve" smooth="yes"/>
      <point x="1762" y="1649"/>
      <point x="1662" y="1645"/>
      <point x="1659" y="1639" type="curve" smooth="yes"/>
      <point x="1639" y="1639"/>
      <point x="1134" y="542"/>
      <point x="1142" y="534" type="curve" smooth="yes"/>
      <point x="1141" y="532"/>
      <point x="768" y="-185"/>
      <point x="792" y="-187" type="curve" smooth="yes"/>
      <point x="812" y="-195"/>
      <point x="842" y="-204"/>
    </contour>
  </outline>
</glyph>
<glyph name="Eth" format="1">
  <advance width="2281"/>
  <unicode hex="00D0"/>
  <outline>
    <contour>
      <point x="560" y="226" type="curve" smooth="yes"/>
      <point x="555" y="226"/>
      <point x="530" y="246"/>
      <point x="530" y="252" type="curve" smooth="yes"/>
      <point x="530" y="639" type="line"/>
      <point x="791" y="639" type="line"/>
      <point x="833" y="639"/>
      <point x="852" y="664"/>
      <point x="853" y="706" type="curve"/>
      <point x="853" y="762" type="line"/>
      <point x="853" y="805"/>
      <point x="834" y="832"/>
      <point x="791" y="832" type="curve" smooth="yes"/>
      <point x="530" y="832" type="line"/>
      <point x="530" y="1190" type="line" smooth="yes"/>
      <point x="530" y="1196"/>
      <point x="550" y="1214"/>
      <point x="556" y="1214" type="curve" smooth="yes"/>
      <point x="573" y="1214"/>
      <point x="1136" y="1215"/>
      <point x="1153" y="1215" type="curve" smooth="yes"/>
      <point x="1499" y="1215"/>
      <point x="1777" y="1107"/>
      <point x="1777" y="723" type="curve" smooth="yes"/>
      <point x="1777" y="285"/>
      <point x="1500" y="226"/>
      <point x="1144" y="226" type="curve" smooth="yes"/>
      <point x="1127" y="226"/>
      <point x="581" y="225"/>
    </contour>
    <contour>
      <point x="230" y="0" type="curve" smooth="yes"/>
      <point x="1165" y="0" type="line" smooth="yes"/>
      <point x="1663" y="0"/>
      <point x="2145" y="77"/>
      <point x="2145" y="725" type="curve" smooth="yes"/>
      <point x="2145" y="1284"/>
      <point x="1675" y="1438"/>
      <point x="1198" y="1438" type="curve" smooth="yes"/>
      <point x="230" y="1438" type="line" smooth="yes"/>
      <point x="187" y="1438"/>
      <point x="160" y="1410"/>
      <point x="160" y="1367" type="curve" smooth="yes"/>
      <point x="160" y="832" type="line"/>
      <point x="64" y="832" type="line" smooth="yes"/>
      <point x="21" y="832"/>
      <point x="1" y="805"/>
      <point x="1" y="762" type="curve" smooth="yes"/>
      <point x="1" y="709" type="line" smooth="yes"/>
      <point x="1" y="666"/>
      <point x="21" y="639"/>
      <point x="64" y="639" type="curve" smooth="yes"/>
      <point x="160" y="639" type="line"/>
      <point x="160" y="70" type="line" smooth="yes"/>
      <point x="160" y="27"/>
      <point x="187" y="0"/>
    </contour>
  </outline>
</glyph>
<glyph name="oslash" format="1">
  <advance width="1764"/>
  <unicode hex="00F8"/>
  <outline>
    <contour>
      <point x="628" y="-202" type="line"/>
      <point x="646" y="-202"/>
      <point x="665" y="-189"/>
      <point x="673" y="-169" type="curve" smooth="yes"/>
      <point x="730" y="-32" type="line"/>
      <point x="783" y="-38"/>
      <point x="835" y="-41"/>
      <point x="884" y="-41" type="curve" smooth="yes"/>
      <point x="1203" y="-41"/>
      <point x="1635" y="75"/>
      <point x="1635" y="505" type="curve" smooth="yes"/>
      <point x="1635" y="822"/>
      <point x="1412" y="966"/>
      <point x="1165" y="1022" type="curve"/>
      <point x="1224" y="1164" type="line" smooth="yes"/>
      <point x="1230" y="1179"/>
      <point x="1221" y="1197"/>
      <point x="1207" y="1197" type="curve" smooth="yes"/>
      <point x="1130" y="1197" type="line" smooth="yes"/>
      <point x="1111" y="1197"/>
      <point x="1094" y="1184"/>
      <point x="1086" y="1164" type="curve" smooth="yes"/>
      <point x="1036" y="1044" type="line"/>
      <point x="985" y="1050"/>
      <point x="934" y="1053"/>
      <point x="884" y="1053" type="curve" smooth="yes"/>
      <point x="550" y="1053"/>
      <point x="130" y="940"/>
      <point x="130" y="505" type="curve" smooth="yes"/>
      <point x="130" y="194"/>
      <point x="355" y="50"/>
      <point x="601" y="-8" type="curve"/>
      <point x="534" y="-167" type="line" smooth="yes"/>
      <point x="527" y="-182"/>
      <point x="536" y="-200"/>
      <point x="551" y="-200" type="curve" smooth="yes"/>
    </contour>
    <contour>
      <point x="678" y="184" type="line"/>
      <point x="548" y="236"/>
      <point x="461" y="343"/>
      <point x="462" y="505" type="curve" smooth="yes"/>
      <point x="461" y="749"/>
      <point x="654" y="864"/>
      <point x="884" y="864" type="curve" smooth="yes"/>
      <point x="909" y="864"/>
      <point x="936" y="863"/>
      <point x="961" y="859" type="curve"/>
    </contour>
    <contour>
      <point x="884" y="148" type="curve" smooth="yes"/>
      <point x="856" y="148"/>
      <point x="830" y="150"/>
      <point x="804" y="152" type="curve"/>
      <point x="1086" y="827" type="line"/>
      <point x="1215" y="777"/>
      <point x="1303" y="672"/>
      <point x="1303" y="505" type="curve" smooth="yes"/>
      <point x="1303" y="266"/>
      <point x="1120" y="148"/>
    </contour>
    <contour>
      <point x="882" y="1006" type="move" name="top"/>
    </contour>
  </outline>
</glyph>
<glyph name="thorn" format="1">
  <advance width="1799"/>
  <unicode hex="00FE"/>
  <outline>
    <contour>
      <point x="229" y="-389" type="curve" smooth="yes"/>
      <point x="424" y="-389" type="line" smooth="yes"/>
      <point x="467" y="-389"/>
      <point x="494" y="-363"/>
      <point x="494" y="-320" type="curve" smooth="yes"/>
      <point x="494" y="121" type="line" smooth="yes"/>
      <point x="494" y="129"/>
      <point x="497" y="133"/>
      <point x="501" y="133" type="curve" smooth="yes"/>
      <point x="504" y="133"/>
      <point x="507" y="131"/>
      <point x="510" y="128" type="curve" smooth="yes"/>
      <point x="619" y="17"/>
      <point x="790" y="-42"/>
      <point x="982" y="-42" type="curve" smooth="yes"/>
      <point x="1312" y="-42"/>
      <point x="1670" y="106"/>
      <point x="1670" y="509" type="curve" smooth="yes"/>
      <point x="1670" y="897"/>
      <point x="1301" y="1053"/>
      <point x="983" y="1053" type="curve" smooth="yes"/>
      <point x="806" y="1053"/>
      <point x="625" y="992"/>
      <point x="501" y="875" type="curve" smooth="yes"/>
      <point x="496" y="870"/>
      <point x="493" y="869"/>
      <point x="491" y="869" type="curve" smooth="yes"/>
      <point x="480" y="869"/>
      <point x="478" y="891"/>
      <point x="478" y="915" type="curve" smooth="yes"/>
      <point x="478" y="1008"/>
      <point x="477" y="1323"/>
      <point x="477" y="1359" type="curve" smooth="yes"/>
      <point x="477" y="1420"/>
      <point x="455" y="1438"/>
      <point x="420" y="1438" type="curve" smooth="yes"/>
      <point x="221" y="1438" type="line" smooth="yes"/>
      <point x="178" y="1438"/>
      <point x="161" y="1411"/>
      <point x="161" y="1368" type="curve" smooth="yes"/>
      <point x="161" y="-320" type="line" smooth="yes"/>
      <point x="161" y="-363"/>
      <point x="186" y="-389"/>
    </contour>
    <contour>
      <point x="914" y="147" type="curve" smooth="yes"/>
      <point x="682" y="147"/>
      <point x="493" y="279"/>
      <point x="493" y="505" type="curve" smooth="yes"/>
      <point x="493" y="725"/>
      <point x="673" y="858"/>
      <point x="914" y="858" type="curve" smooth="yes"/>
      <point x="1149" y="858"/>
      <point x="1329" y="726"/>
      <point x="1329" y="504" type="curve" smooth="yes"/>
      <point x="1329" y="265"/>
      <point x="1137" y="147"/>
    </contour>
  </outline>
</glyph>
<glyph name="Hbar" format="1">
  <advance width="2159"/>
  <unicode hex="0126"/>
  <outline>
    <contour>
      <point x="230" y="0" type="curve" smooth="yes"/>
      <point x="455" y="0" type="line" smooth="yes"/>
      <point x="498" y="0"/>
      <point x="525" y="27"/>
      <point x="525" y="70" type="curve" smooth="yes"/>
      <point x="525" y="609" type="line" smooth="yes"/>
      <point x="525" y="615"/>
      <point x="542" y="631"/>
      <point x="547" y="631" type="curve" smooth="yes"/>
      <point x="1608" y="631" type="line" smooth="yes"/>
      <point x="1614" y="631"/>
      <point x="1630" y="613"/>
      <point x="1630" y="607" type="curve" smooth="yes"/>
      <point x="1630" y="70" type="line" smooth="yes"/>
      <point x="1630" y="27"/>
      <point x="1657" y="0"/>
      <point x="1700" y="0" type="curve" smooth="yes"/>
      <point x="1929" y="0" type="line" smooth="yes"/>
      <point x="1972" y="0"/>
      <point x="1999" y="27"/>
      <point x="1999" y="70" type="curve" smooth="yes"/>
      <point x="1999" y="1096" type="line"/>
      <point x="2105" y="1096" type="line" smooth="yes"/>
      <point x="2146" y="1096"/>
      <point x="2160" y="1120"/>
      <point x="2160" y="1163" type="curve" smooth="yes"/>
      <point x="2160" y="1195" type="line" smooth="yes"/>
      <point x="2160" y="1238"/>
      <point x="2146" y="1262"/>
      <point x="2105" y="1262" type="curve" smooth="yes"/>
      <point x="1999" y="1262" type="line"/>
      <point x="1999" y="1368" type="line" smooth="yes"/>
      <point x="1999" y="1411"/>
      <point x="1972" y="1438"/>
      <point x="1929" y="1438" type="curve" smooth="yes"/>
      <point x="1701" y="1438" type="line" smooth="yes"/>
      <point x="1658" y="1438"/>
      <point x="1631" y="1411"/>
      <point x="1631" y="1368" type="curve" smooth="yes"/>
      <point x="1631" y="1262" type="line"/>
      <point x="523" y="1262" type="line"/>
      <point x="523" y="1368" type="line" smooth="yes"/>
      <point x="523" y="1411"/>
      <point x="497" y="1438"/>
      <point x="454" y="1438" type="curve" smooth="yes"/>
      <point x="230" y="1438" type="line" smooth="yes"/>
      <point x="187" y="1438"/>
      <point x="160" y="1411"/>
      <point x="160" y="1368" type="curve" smooth="yes"/>
      <point x="160" y="1262" type="line"/>
      <point x="57" y="1262" type="line" smooth="yes"/>
      <point x="17" y="1262"/>
      <point x="3" y="1238"/>
      <point x="3" y="1195" type="curve" smooth="yes"/>
      <point x="3" y="1163" type="line" smooth="yes"/>
      <point x="3" y="1120"/>
      <point x="17" y="1096"/>
      <point x="57" y="1096" type="curve" smooth="yes"/>
      <point x="160" y="1096" type="line"/>
      <point x="160" y="70" type="line" smooth="yes"/>
      <point x="160" y="27"/>
      <point x="187" y="0"/>
    </contour>
    <contour>
      <point x="544" y="852" type="line"/>
      <point x="538" y="852"/>
      <point x="523" y="868"/>
      <point x="523" y="874" type="curve" smooth="yes"/>
      <point x="523" y="1096" type="line"/>
      <point x="1631" y="1096" type="line"/>
      <point x="1631" y="876" type="line"/>
      <point x="1631" y="870"/>
      <point x="1613" y="852"/>
      <point x="1607" y="852" type="curve"/>
    </contour>
  </outline>
</glyph>
<glyph name="Lslash" format="1">
  <advance width="1565"/>
  <unicode hex="0141"/>
  <outline>
    <contour>
      <point x="230" y="0" type="curve" smooth="yes"/>
      <point x="1381" y="0" type="line" smooth="yes"/>
      <point x="1424" y="0"/>
      <point x="1450" y="27"/>
      <point x="1450" y="70" type="curve" smooth="yes"/>
      <point x="1450" y="158" type="line" smooth="yes"/>
      <point x="1450" y="201"/>
      <point x="1424" y="227"/>
      <point x="1381" y="227" type="curve" smooth="yes"/>
      <point x="580" y="227" type="line" smooth="yes"/>
      <point x="560" y="227"/>
      <point x="543" y="244"/>
      <point x="543" y="264" type="curve" smooth="yes"/>
      <point x="543" y="745" type="line"/>
      <point x="802" y="812" type="line" smooth="yes"/>
      <point x="833" y="820"/>
      <point x="850" y="836"/>
      <point x="850" y="870" type="curve" smooth="yes"/>
      <point x="850" y="976" type="line" smooth="yes"/>
      <point x="850" y="1009"/>
      <point x="833" y="1039"/>
      <point x="802" y="1031" type="curve" smooth="yes"/>
      <point x="543" y="964" type="line"/>
      <point x="543" y="1368" type="line" smooth="yes"/>
      <point x="543" y="1411"/>
      <point x="516" y="1438"/>
      <point x="473" y="1438" type="curve" smooth="yes"/>
      <point x="230" y="1438" type="line" smooth="yes"/>
      <point x="187" y="1438"/>
      <point x="160" y="1411"/>
      <point x="160" y="1368" type="curve" smooth="yes"/>
      <point x="160" y="868" type="line"/>
      <point x="47" y="839" type="line" smooth="yes"/>
      <point x="17" y="833"/>
      <point x="0" y="815"/>
      <point x="0" y="779" type="curve" smooth="yes"/>
      <point x="0" y="681" type="line" smooth="yes"/>
      <point x="0" y="646"/>
      <point x="17" y="614"/>
      <point x="47" y="620" type="curve" smooth="yes"/>
      <point x="160" y="649" type="line"/>
      <point x="160" y="70" type="line" smooth="yes"/>
      <point x="160" y="27"/>
      <point x="187" y="0"/>
    </contour>
  </outline>
</glyph>
<glyph name="circumflex" format="1">
  <advance width="878"/>
  <unicode hex="02C6"/>
  <outline>
    <contour>
      <point x="107" y="1217" type="curve" smooth="yes"/>
      <point x="147" y="1217" type="line" smooth="yes"/>
      <point x="194" y="1217"/>
      <point x="247" y="1234"/>
      <point x="288" y="1261" type="curve" smooth="yes"/>
      <point x="401" y="1337" type="line" smooth="yes"/>
      <point x="411" y="1344"/>
      <point x="422" y="1347"/>
      <point x="434" y="1347" type="curve" smooth="yes"/>
      <point x="445" y="1347"/>
      <point x="457" y="1344"/>
      <point x="466" y="1337" type="curve"/>
      <point x="578" y="1261" type="line" smooth="yes"/>
      <point x="619" y="1234"/>
      <point x="673" y="1217"/>
      <point x="720" y="1217" type="curve" smooth="yes"/>
      <point x="759" y="1217" type="line" smooth="yes"/>
      <point x="777" y="1217"/>
      <point x="789" y="1234"/>
      <point x="789" y="1252" type="curve" smooth="yes"/>
      <point x="789" y="1261"/>
      <point x="786" y="1270"/>
      <point x="779" y="1277" type="curve" smooth="yes"/>
      <point x="613" y="1455" type="line" smooth="yes"/>
      <point x="577" y="1493"/>
      <point x="524" y="1516"/>
      <point x="475" y="1516" type="curve" smooth="yes"/>
      <point x="391" y="1516" type="line" smooth="yes"/>
      <point x="343" y="1516"/>
      <point x="289" y="1493"/>
      <point x="254" y="1455" type="curve" smooth="yes"/>
      <point x="87" y="1277" type="line" smooth="yes"/>
      <point x="80" y="1270"/>
      <point x="77" y="1261"/>
      <point x="77" y="1252" type="curve" smooth="yes"/>
      <point x="77" y="1234"/>
      <point x="89" y="1217"/>
    </contour>
    <contour>
      <point x="433" y="1006" type="move" name="_top"/>
    </contour>
  </outline>
</glyph>
<glyph name="breve" format="1">
  <advance width="1680"/>
  <unicode hex="02D8"/>
  <outline>
    <contour>
      <point x="631" y="1209" type="curve" smooth="yes"/>
      <point x="796" y="1209"/>
      <point x="969" y="1267"/>
      <point x="970" y="1522" type="curve"/>
      <point x="759" y="1522" type="line"/>
      <point x="759" y="1409"/>
      <point x="711" y="1360"/>
      <point x="631" y="1360" type="curve" smooth="yes"/>
      <point x="550" y="1360"/>
      <point x="503" y="1414"/>
      <point x="502" y="1522" type="curve"/>
      <point x="291" y="1522" type="line"/>
      <point x="293" y="1267"/>
      <point x="465" y="1209"/>
    </contour>
    <contour>
      <point x="631" y="1006" type="move" name="_top"/>
    </contour>
  </outline>
</glyph>
<glyph name="hungarumlaut" format="1">
  <advance width="1352"/>
  <unicode hex="02DD"/>
  <outline>
    <contour>
      <point x="402" y="1278" type="curve" smooth="yes"/>
      <point x="447" y="1278" type="line" smooth="yes"/>
      <point x="485" y="1278"/>
      <point x="489" y="1295"/>
      <point x="503" y="1317" type="curve" smooth="yes"/>
      <point x="710" y="1651" type="line" smooth="yes"/>
      <point x="717" y="1663"/>
      <point x="722" y="1677"/>
      <point x="722" y="1688" type="curve" smooth="yes"/>
      <point x="722" y="1704"/>
      <point x="714" y="1716"/>
      <point x="694" y="1716" type="curve" smooth="yes"/>
      <point x="498" y="1716" type="line" smooth="yes"/>
      <point x="454" y="1716"/>
      <point x="435" y="1704"/>
      <point x="427" y="1661" type="curve" smooth="yes"/>
      <point x="364" y="1345" type="line" smooth="yes"/>
      <point x="361" y="1331"/>
      <point x="360" y="1319"/>
      <point x="360" y="1310" type="curve" smooth="yes"/>
      <point x="360" y="1283"/>
      <point x="373" y="1278"/>
    </contour>
    <contour>
      <point x="807" y="1278" type="curve" smooth="yes"/>
      <point x="852" y="1278" type="line" smooth="yes"/>
      <point x="890" y="1278"/>
      <point x="895" y="1295"/>
      <point x="908" y="1317" type="curve" smooth="yes"/>
      <point x="1116" y="1651" type="line" smooth="yes"/>
      <point x="1123" y="1663"/>
      <point x="1128" y="1677"/>
      <point x="1128" y="1688" type="curve" smooth="yes"/>
      <point x="1128" y="1704"/>
      <point x="1120" y="1716"/>
      <point x="1100" y="1716" type="curve" smooth="yes"/>
      <point x="903" y="1716" type="line" smooth="yes"/>
      <point x="859" y="1716"/>
      <point x="840" y="1704"/>
      <point x="832" y="1661" type="curve" smooth="yes"/>
      <point x="769" y="1345" type="line" smooth="yes"/>
      <point x="766" y="1331"/>
      <point x="765" y="1319"/>
      <point x="765" y="1310" type="curve" smooth="yes"/>
      <point x="765" y="1283"/>
      <point x="778" y="1278"/>
    </contour>
    <contour>
      <point x="744" y="1006" type="move" name="_top"/>
    </contour>
  </outline>
</glyph>
<glyph name="uni0311" format="1">
  <advance width="1680"/>
  <unicode hex="0311"/>
  <outline>
    <contour>
      <point x="291" y="1209" type="curve"/>
      <point x="502" y="1209" type="line"/>
      <point x="503" y="1322"/>
      <point x="550" y="1371"/>
      <point x="630" y="1371" type="curve" smooth="yes"/>
      <point x="711" y="1371"/>
      <point x="759" y="1317"/>
      <point x="759" y="1209" type="curve"/>
      <point x="970" y="1209" type="line"/>
      <point x="969" y="1464"/>
      <point x="796" y="1522"/>
      <point x="630" y="1522" type="curve" smooth="yes"/>
      <point x="465" y="1522"/>
      <point x="293" y="1464"/>
    </contour>
  </outline>
</glyph>
<glyph name="endash" format="1">
  <advance width="1024"/>
  <unicode hex="2013"/>
  <outline>
    <contour>
      <point x="151" y="464" type="curve" smooth="yes"/>
      <point x="874" y="464" type="line" smooth="yes"/>
      <point x="905" y="464"/>
      <point x="921" y="484"/>
      <point x="921" y="518" type="curve" smooth="yes"/>
      <point x="921" y="635" type="line" smooth="yes"/>
      <point x="921" y="668"/>
      <point x="905" y="687"/>
      <point x="874" y="687" type="curve" smooth="yes"/>
      <point x="151" y="687" type="line" smooth="yes"/>
      <point x="120" y="687"/>
      <point x="103" y="666"/>
      <point x="103" y="631" type="curve" smooth="yes"/>
      <point x="103" y="521" type="line" smooth="yes"/>
      <point x="103" y="485"/>
      <point x="120" y="464"/>
    </contour>
  </outline>
</glyph>
<glyph name="quotedblright" format="1">
  <advance width="1122"/>
  <unicode hex="201D"/>
  <outline>
    <contour>
      <point x="219" y="877" type="curve" smooth="yes"/>
      <point x="357" y="900"/>
      <point x="502" y="1027"/>
      <point x="502" y="1264" type="curve" smooth="yes"/>
      <point x="502" y="1440" type="line" smooth="yes"/>
      <point x="502" y="1483"/>
      <point x="472" y="1517"/>
      <point x="429" y="1517" type="curve" smooth="yes"/>
      <point x="210" y="1517" type="line" smooth="yes"/>
      <point x="167" y="1517"/>
      <point x="150" y="1492"/>
      <point x="150" y="1449" type="curve" smooth="yes"/>
      <point x="150" y="1246" type="line" smooth="yes"/>
      <point x="150" y="1208"/>
      <point x="172" y="1190"/>
      <point x="210" y="1190" type="curve" smooth="yes"/>
      <point x="293" y="1190" type="line" smooth="yes"/>
      <point x="308" y="1190"/>
      <point x="310" y="1179"/>
      <point x="310" y="1163" type="curve" smooth="yes"/>
      <point x="310" y="1139"/>
      <point x="283" y="1062"/>
      <point x="214" y="1019" type="curve" smooth="yes"/>
      <point x="171" y="992"/>
      <point x="150" y="998"/>
      <point x="150" y="944" type="curve" smooth="yes"/>
      <point x="150" y="922" type="line" smooth="yes"/>
      <point x="150" y="886"/>
      <point x="184" y="871"/>
    </contour>
    <contour>
      <point x="691" y="877" type="curve" smooth="yes"/>
      <point x="829" y="900"/>
      <point x="974" y="1027"/>
      <point x="974" y="1264" type="curve" smooth="yes"/>
      <point x="974" y="1440" type="line" smooth="yes"/>
      <point x="974" y="1483"/>
      <point x="944" y="1517"/>
      <point x="901" y="1517" type="curve" smooth="yes"/>
      <point x="682" y="1517" type="line" smooth="yes"/>
      <point x="639" y="1517"/>
      <point x="622" y="1492"/>
      <point x="622" y="1449" type="curve" smooth="yes"/>
      <point x="622" y="1246" type="line" smooth="yes"/>
      <point x="622" y="1208"/>
      <point x="644" y="1190"/>
      <point x="682" y="1190" type="curve" smooth="yes"/>
      <point x="765" y="1190" type="line" smooth="yes"/>
      <point x="780" y="1190"/>
      <point x="782" y="1179"/>
      <point x="782" y="1163" type="curve" smooth="yes"/>
      <point x="782" y="1139"/>
      <point x="755" y="1062"/>
      <point x="686" y="1019" type="curve" smooth="yes"/>
      <point x="643" y="992"/>
      <point x="622" y="998"/>
      <point x="622" y="944" type="curve" smooth="yes"/>
      <point x="622" y="922" type="line" smooth="yes"/>
      <point x="622" y="886"/>
      <point x="656" y="871"/>
    </contour>
  </outline>
</glyph>
<glyph name="guilsinglright" format="1">
  <advance width="718"/>
  <unicode hex="203A"/>
  <outline>
    <contour>
      <point x="119" y="169" type="curve" smooth="yes"/>
      <point x="128" y="169"/>
      <point x="139" y="173"/>
      <point x="151" y="179" type="curve" smooth="yes"/>
      <point x="577" y="476" type="line"/>
      <point x="623" y="509"/>
      <point x="650" y="538"/>
      <point x="650" y="588" type="curve" smooth="yes"/>
      <point x="650" y="680" type="line" smooth="yes"/>
      <point x="650" y="730"/>
      <point x="623" y="755"/>
      <point x="578" y="788" type="curve"/>
      <point x="150" y="1096" type="line" smooth="yes"/>
      <point x="138" y="1103"/>
      <point x="127" y="1107"/>
      <point x="118" y="1107" type="curve" smooth="yes"/>
      <point x="92" y="1107"/>
      <point x="73" y="1085"/>
      <point x="73" y="1063" type="curve" smooth="yes"/>
      <point x="73" y="968" type="line" smooth="yes"/>
      <point x="73" y="919"/>
      <point x="94" y="898"/>
      <point x="134" y="866" type="curve"/>
      <point x="430" y="652" type="line"/>
      <point x="438" y="646"/>
      <point x="441" y="639"/>
      <point x="441" y="631" type="curve" smooth="yes"/>
      <point x="441" y="623"/>
      <point x="438" y="617"/>
      <point x="430" y="610" type="curve"/>
      <point x="134" y="398" type="line"/>
      <point x="94" y="366"/>
      <point x="73" y="345"/>
      <point x="73" y="296" type="curve" smooth="yes"/>
      <point x="73" y="213" type="line" smooth="yes"/>
      <point x="73" y="191"/>
      <point x="92" y="169"/>
    </contour>
  </outline>
</glyph>
